<svg xmlns="http://www.w3.org/2000/svg" viewBox="0 0 512 512">
  <path fill="#25D366" d="M256 0C114.6 0 0 114.6 0 256c0 45.5 11.8 89.9 34.3 129.2L0 512l130.9-33.8C170.5 500.2 213 512 256 512c141.4 0 256-114.6 256-256S397.4 0 256 0z"></path>
  <path fill="#fff" d="M380.9 303.4c-5.9-3-34.7-17.1-40.1-19s-9.3-3-13.2 3-15.2 19-18.6 23c-3.4 4-6.9 4.5-12.8 1.5-35.8-17.9-59.3-32-83.5-71.6-6.3-10.8 6.3-10.1 17.9-33.5 2-4 1-7.5-.5-10.5s-13.2-31.6-18-43.3c-4.7-11.3-9.5-9.7-13.2-9.9-3.4-.2-7.4-.2-11.4-.2s-10.5 1.5-16 7c-5.5 5.5-21 20.5-21 50s21.5 58 24.5 62.1c3 4 42.3 64.8 102.4 90.8 14.3 6.2 25.5 9.9 34.2 12.6 14.4 4.6 27.5 3.9 37.9 2.4 11.6-1.7 34.7-14.2 39.6-27.9 4.9-13.7 4.9-25.4 3.4-27.9-1.4-2.5-5.4-3.9-11.3-6.9z"></path>
</svg>
